<svg viewBox="0 0 100 100" xmlns="http://www.w3.org/2000/svg">
  <!-- No background rect - transparent background -->

  <!-- Simplified Contour Line -->
  <path d="M10,65 Q40,35 90,45" stroke="#5ca537" stroke-width="3" fill="none" />

  <!-- Abstract Rose -->
  <g transform="translate(30, 35) scale(0.7)">
    <!-- Simplified Rose Petals -->
    <path d="M0,0 C10,-15 25,-10 20,0 C25,10 10,15 0,0" fill="#5ca537" transform="rotate(0)" />
    <path d="M0,0 C10,-15 25,-10 20,0 C25,10 10,15 0,0" fill="#5ca537" transform="rotate(72)" />
    <path d="M0,0 C10,-15 25,-10 20,0 C25,10 10,15 0,0" fill="#5ca537" transform="rotate(144)" />
    <path d="M0,0 C10,-15 25,-10 20,0 C25,10 10,15 0,0" fill="#5ca537" transform="rotate(216)" />
    <path d="M0,0 C10,-15 25,-10 20,0 C25,10 10,15 0,0" fill="#5ca537" transform="rotate(288)" />
    <!-- Center -->
    <circle cx="0" cy="0" r="5" fill="white" />
  </g>

  <!-- Simplified Neural Network -->
  <g transform="translate(65, 60)">
    <!-- Nodes -->
    <circle cx="-20" cy="-10" r="5" fill="#5ca537" />
    <circle cx="-20" cy="10" r="5" fill="#5ca537" />
    <circle cx="0" cy="0" r="5" fill="#5ca537" />
    <circle cx="20" cy="-10" r="5" fill="#5ca537" />
    <circle cx="20" cy="10" r="5" fill="#5ca537" />

    <!-- Connections -->
    <line x1="-20" y1="-10" x2="0" y2="0" stroke="#5ca537" stroke-width="2" />
    <line x1="-20" y1="10" x2="0" y2="0" stroke="#5ca537" stroke-width="2" />
    <line x1="0" y1="0" x2="20" y2="-10" stroke="#5ca537" stroke-width="2" />
    <line x1="0" y1="0" x2="20" y2="10" stroke="#5ca537" stroke-width="2" />
  </g>
</svg>
